<svg width="24" height="24" viewBox="0 0 24 24" fill="none" xmlns="http://www.w3.org/2000/svg">
<path d="M13.3675 20.8958L5.36754 18.2292C4.96932 18.0964 4.62295 17.8417 4.37751 17.5012C4.13207 17.1607 4 16.7516 4 16.3318V5.00152C4 4.68462 4.07531 4.37225 4.21972 4.09016C4.36412 3.80807 4.5735 3.56434 4.83058 3.37904C5.08767 3.19374 5.38511 3.07219 5.69839 3.0244C6.01167 2.97661 6.33182 3.00395 6.63246 3.10416L14.6325 5.77082C15.0307 5.90356 15.377 6.15824 15.6225 6.49877C15.8679 6.8393 16 7.24843 16 7.66819V18.9985C16 19.3154 15.9247 19.6277 15.7803 19.9098C15.6359 20.1919 15.4265 20.4356 15.1694 20.6209C14.9123 20.8062 14.6149 20.9278 14.3016 20.9756C13.9883 21.0234 13.6682 20.996 13.3675 20.8958V20.8958Z" stroke="#505D6D" stroke-width="1.5" stroke-linecap="round" stroke-linejoin="round"/>
<path d="M7 9L13 11" stroke="#505D6D" stroke-width="1.5" stroke-linecap="round" stroke-linejoin="round"/>
<path d="M7 13L13 15" stroke="#505D6D" stroke-width="1.5" stroke-linecap="round" stroke-linejoin="round"/>
<path d="M6 3H18C18.5304 3 19.0391 3.21071 19.4142 3.58579C19.7893 3.96086 20 4.46957 20 5V16C20 16.5304 19.7893 17.0391 19.4142 17.4142C19.0391 17.7893 18.5304 18 18 18H16" stroke="#505D6D" stroke-width="1.5" stroke-linecap="round" stroke-linejoin="round"/>
</svg>
