<svg width="24" height="24" viewBox="0 0 24 24" fill="none" xmlns="http://www.w3.org/2000/svg">
<path d="M13.3675 20.8959L5.36754 18.2292C4.96932 18.0965 4.62295 17.8418 4.37751 17.5013C4.13207 17.1607 4 16.7516 4 16.3319V5.00158C4 4.68468 4.07531 4.37231 4.21972 4.09022C4.36412 3.80813 4.5735 3.5644 4.83058 3.3791C5.08767 3.1938 5.38511 3.07225 5.69839 3.02446C6.01167 2.97667 6.33182 3.00401 6.63246 3.10422L14.6325 5.77088C15.0307 5.90362 15.377 6.1583 15.6225 6.49883C15.8679 6.83936 16 7.24849 16 7.66825V18.9985C16 19.3154 15.9247 19.6278 15.7803 19.9099C15.6359 20.192 15.4265 20.4357 15.1694 20.621C14.9123 20.8063 14.6149 20.9279 14.3016 20.9756C13.9883 21.0234 13.6682 20.9961 13.3675 20.8959V20.8959Z" stroke="#3C4551" stroke-width="1.5" stroke-linecap="round" stroke-linejoin="round"/>
<path d="M7 9L13 11" stroke="#3C4551" stroke-width="1.5" stroke-linecap="round" stroke-linejoin="round"/>
<path d="M7 13L13 15" stroke="#3C4551" stroke-width="1.5" stroke-linecap="round" stroke-linejoin="round"/>
<path d="M6 3H18C18.5304 3 19.0391 3.21071 19.4142 3.58579C19.7893 3.96086 20 4.46957 20 5V16C20 16.5304 19.7893 17.0391 19.4142 17.4142C19.0391 17.7893 18.5304 18 18 18H16" stroke="#3C4551" stroke-width="1.5" stroke-linecap="round" stroke-linejoin="round"/>
</svg>
