<svg width="24" height="24" viewBox="0 0 24 24" fill="none" xmlns="http://www.w3.org/2000/svg">
<path d="M8.5 7V6.5C8.5 5.57174 8.86875 4.6815 9.52513 4.02513C10.1815 3.36875 11.0717 3 12 3V3C12.9283 3 13.8185 3.36875 14.4749 4.02513C15.1313 4.6815 15.5 5.57174 15.5 6.5V7" stroke="#3C4551" stroke-width="1.5" stroke-linecap="round" stroke-linejoin="round"/>
<path d="M10 11V12" stroke="#3C4551" stroke-width="1.5" stroke-linecap="round" stroke-linejoin="round"/>
<path d="M14 11V12" stroke="#3C4551" stroke-width="1.5" stroke-linecap="round" stroke-linejoin="round"/>
<path d="M15.5 15.688C14.5302 16.5339 13.2869 17 12 17C10.7131 17 9.46978 16.5339 8.5 15.688" stroke="#3C4551" stroke-width="1.5" stroke-linecap="round" stroke-linejoin="round"/>
<path d="M6.46406 7C5.95523 7.00001 5.46554 7.19397 5.0947 7.54236C4.72386 7.89076 4.49975 8.3674 4.46801 8.87524L4.00901 16.2193C3.97067 16.8327 4.05839 17.4474 4.26675 18.0256C4.47511 18.6038 4.7997 19.1332 5.2205 19.5811C5.64131 20.029 6.1494 20.386 6.71347 20.6301C7.27753 20.8741 7.8856 21 8.50019 21H15.4998C16.1144 21 16.7225 20.8741 17.2866 20.6301C17.8506 20.3861 18.3587 20.0291 18.7796 19.5811C19.2004 19.1332 19.525 18.6038 19.7333 18.0256C19.9417 17.4474 20.0294 16.8327 19.9911 16.2193L19.5321 8.87524C19.5003 8.3674 19.2762 7.89076 18.9054 7.54236C18.5345 7.19396 18.0448 7.00001 17.536 7H6.46406Z" stroke="#3C4551" stroke-width="1.5" stroke-linecap="round" stroke-linejoin="round"/>
</svg>
