<svg width="17" height="20" viewBox="0 0 17 20" fill="none" xmlns="http://www.w3.org/2000/svg">
<path d="M5.569 17.0101L5.688 17.3551C6.1 18.5521 7.404 19.1881 8.601 18.7761C9.798 18.3641 10.434 17.0601 10.022 15.8631L9.903 15.5181" stroke="#242A31" stroke-width="1.5" stroke-linecap="round" stroke-linejoin="round"/>
<path d="M6.98503 3.20403L6.68603 2.33603C6.35603 1.37903 5.31303 0.870035 4.35503 1.20003C3.39803 1.53003 2.88903 2.57304 3.21803 3.53004L3.51703 4.39803" stroke="#242A31" stroke-width="1.5" stroke-linecap="round" stroke-linejoin="round"/>
<path d="M1.55401 9.76604C0.739014 7.40004 1.99701 4.82104 4.36301 4.00604L6.07701 3.41604C8.44301 2.60104 11.022 3.85905 11.837 6.22504L12.747 8.86904C12.92 9.37104 13.285 9.78304 13.761 10.015L14.576 10.412C15.053 10.645 15.418 11.057 15.59 11.558C15.93 12.545 15.405 13.621 14.418 13.961L4.28301 17.451C3.29601 17.791 2.22001 17.266 1.88001 16.279C1.70701 15.777 1.74101 15.228 1.97301 14.751L2.37001 13.936C2.60301 13.459 2.63601 12.91 2.46301 12.408L1.55401 9.76604Z" fill="#242A31" stroke="#242A31" stroke-width="1.5" stroke-linecap="round" stroke-linejoin="round"/>
</svg>
