<svg width="16" height="16" viewBox="0 0 16 16" fill="none" xmlns="http://www.w3.org/2000/svg">
<g clip-path="url(#clip0_226_6078)">
<mask id="mask0_226_6078" style="mask-type:alpha" maskUnits="userSpaceOnUse" x="2" y="0" width="12" height="16">
<path d="M13.4204 7.64814L8.62803 14.8462C8.18873 15.5053 7.19453 15.1828 7.19453 14.3803V9.63605H3.18822C2.55359 9.63605 2.17967 8.89494 2.54163 8.35195L7.33405 1.15388C7.77335 0.49484 8.76755 0.817315 8.76755 1.61977V6.36405H12.7739C13.4077 6.36405 13.7816 7.10516 13.4204 7.64814Z" fill="white"/>
</mask>
<g mask="url(#mask0_226_6078)">
<path d="M13.4204 7.64814L8.62803 14.8462C8.18873 15.5053 7.19453 15.1828 7.19453 14.3803V9.63605H3.18822C2.55359 9.63605 2.17967 8.89494 2.54163 8.35195L7.33405 1.15388C7.77335 0.49484 8.76755 0.817315 8.76755 1.61977V6.36405H12.7739C13.4077 6.36405 13.7816 7.10516 13.4204 7.64814Z" fill="white"/>
<path d="M4.63151 0.800049H2.40002V4.40005H4.63151V0.800049Z" fill="url(#paint0_linear_226_6078)"/>
<path d="M6.86301 0.800049H4.63153V4.40005H6.86301V0.800049Z" fill="url(#paint1_linear_226_6078)"/>
<path d="M9.09446 0.800049H6.86298V4.40005H9.09446V0.800049Z" fill="url(#paint2_linear_226_6078)"/>
<path d="M11.326 0.800049H9.09448V4.40005H11.326V0.800049Z" fill="url(#paint3_linear_226_6078)"/>
<path d="M13.5574 0.800049H11.3259V4.40005H13.5574V0.800049Z" fill="url(#paint4_linear_226_6078)"/>
<path d="M4.63151 4.40015H2.40002V8.00015H4.63151V4.40015Z" fill="url(#paint5_linear_226_6078)"/>
<path d="M6.86301 4.40015H4.63153V8.00015H6.86301V4.40015Z" fill="url(#paint6_linear_226_6078)"/>
<path d="M9.09446 4.40015H6.86298V8.00015H9.09446V4.40015Z" fill="url(#paint7_linear_226_6078)"/>
<path d="M11.326 4.40015H9.09448V8.00015H11.326V4.40015Z" fill="url(#paint8_linear_226_6078)"/>
<path d="M13.5574 4.40015H11.3259V8.00015H13.5574V4.40015Z" fill="url(#paint9_linear_226_6078)"/>
<path d="M4.63151 8H2.40002V11.6H4.63151V8Z" fill="url(#paint10_linear_226_6078)"/>
<path d="M6.86301 8H4.63153V11.6H6.86301V8Z" fill="url(#paint11_linear_226_6078)"/>
<path d="M9.09446 8H6.86298V11.6H9.09446V8Z" fill="url(#paint12_linear_226_6078)"/>
<path d="M11.326 8H9.09448V11.6H11.326V8Z" fill="url(#paint13_linear_226_6078)"/>
<path d="M13.5574 8H11.3259V11.6H13.5574V8Z" fill="url(#paint14_linear_226_6078)"/>
<path d="M4.63151 11.6001H2.40002V15.2001H4.63151V11.6001Z" fill="url(#paint15_linear_226_6078)"/>
<path d="M6.86301 11.6001H4.63153V15.2001H6.86301V11.6001Z" fill="url(#paint16_linear_226_6078)"/>
<path d="M9.09446 11.6001H6.86298V15.2001H9.09446V11.6001Z" fill="url(#paint17_linear_226_6078)"/>
<path d="M11.326 11.6001H9.09448V15.2001H11.326V11.6001Z" fill="url(#paint18_linear_226_6078)"/>
<path d="M13.5574 11.6001H11.3259V15.2001H13.5574V11.6001Z" fill="url(#paint19_linear_226_6078)"/>
</g>
</g>
<defs>
<linearGradient id="paint0_linear_226_6078" x1="3.51577" y1="0.800049" x2="3.51577" y2="4.40005" gradientUnits="userSpaceOnUse">
<stop stop-color="#5BE1FF"/>
<stop offset="1" stop-color="#2EC0FF"/>
</linearGradient>
<linearGradient id="paint1_linear_226_6078" x1="5.74727" y1="0.800049" x2="5.74727" y2="4.40005" gradientUnits="userSpaceOnUse">
<stop stop-color="#A2F9FF"/>
<stop offset="1" stop-color="#69F1FE"/>
</linearGradient>
<linearGradient id="paint2_linear_226_6078" x1="7.97872" y1="0.800049" x2="7.97872" y2="4.40005" gradientUnits="userSpaceOnUse">
<stop stop-color="#8EE0FF"/>
<stop offset="1" stop-color="#55BDFF"/>
</linearGradient>
<linearGradient id="paint3_linear_226_6078" x1="10.2102" y1="0.800049" x2="10.2102" y2="4.40005" gradientUnits="userSpaceOnUse">
<stop stop-color="#54DEFC"/>
<stop offset="1" stop-color="#2ABAF7"/>
</linearGradient>
<linearGradient id="paint4_linear_226_6078" x1="12.4417" y1="0.800049" x2="12.4417" y2="4.40005" gradientUnits="userSpaceOnUse">
<stop stop-color="#54DEFC"/>
<stop offset="1" stop-color="#2ABAF7"/>
</linearGradient>
<linearGradient id="paint5_linear_226_6078" x1="3.51577" y1="4.40015" x2="3.51577" y2="8.00015" gradientUnits="userSpaceOnUse">
<stop stop-color="#49E9D1"/>
<stop offset="1" stop-color="#23CFA4"/>
</linearGradient>
<linearGradient id="paint6_linear_226_6078" x1="5.74727" y1="4.40015" x2="5.74727" y2="8.00015" gradientUnits="userSpaceOnUse">
<stop stop-color="#5BE1FF"/>
<stop offset="1" stop-color="#2EC0FF"/>
</linearGradient>
<linearGradient id="paint7_linear_226_6078" x1="7.97872" y1="4.40015" x2="7.97872" y2="8.00015" gradientUnits="userSpaceOnUse">
<stop stop-color="#5FD8FF"/>
<stop offset="1" stop-color="#31AFFF"/>
</linearGradient>
<linearGradient id="paint8_linear_226_6078" x1="10.2102" y1="4.40015" x2="10.2102" y2="8.00015" gradientUnits="userSpaceOnUse">
<stop stop-color="#89C6FD"/>
<stop offset="1" stop-color="#5194F9"/>
</linearGradient>
<linearGradient id="paint9_linear_226_6078" x1="12.4417" y1="4.40015" x2="12.4417" y2="8.00015" gradientUnits="userSpaceOnUse">
<stop stop-color="#ADE3FA"/>
<stop offset="1" stop-color="#75C3F4"/>
</linearGradient>
<linearGradient id="paint10_linear_226_6078" x1="3.51577" y1="8" x2="3.51577" y2="11.6" gradientUnits="userSpaceOnUse">
<stop stop-color="#25CFFF"/>
<stop offset="1" stop-color="#10A2FF"/>
</linearGradient>
<linearGradient id="paint11_linear_226_6078" x1="5.74727" y1="8" x2="5.74727" y2="11.6" gradientUnits="userSpaceOnUse">
<stop stop-color="#87DAF9"/>
<stop offset="1" stop-color="#4FB3F0"/>
</linearGradient>
<linearGradient id="paint12_linear_226_6078" x1="6.8642" y1="9.8" x2="8.40524" y2="9.8" gradientUnits="userSpaceOnUse">
<stop stop-color="#B78AFC"/>
<stop offset="0.451623" stop-color="#887CFC"/>
<stop offset="1" stop-color="#5C89FF"/>
</linearGradient>
<linearGradient id="paint13_linear_226_6078" x1="10.2102" y1="8" x2="10.2102" y2="11.6" gradientUnits="userSpaceOnUse">
<stop stop-color="#A89AF4"/>
<stop offset="1" stop-color="#6F61E5"/>
</linearGradient>
<linearGradient id="paint14_linear_226_6078" x1="12.4417" y1="8" x2="12.4417" y2="11.6" gradientUnits="userSpaceOnUse">
<stop stop-color="#A2A1FC"/>
<stop offset="1" stop-color="#6968F7"/>
</linearGradient>
<linearGradient id="paint15_linear_226_6078" x1="3.51577" y1="11.6001" x2="3.51577" y2="15.2001" gradientUnits="userSpaceOnUse">
<stop stop-color="#80C3F3"/>
<stop offset="1" stop-color="#4990E3"/>
</linearGradient>
<linearGradient id="paint16_linear_226_6078" x1="2.29649" y1="14.1122" x2="6.20459" y2="13.8365" gradientUnits="userSpaceOnUse">
<stop stop-color="#B78AFC"/>
<stop offset="0.451623" stop-color="#887CFC"/>
<stop offset="1" stop-color="#5C89FF"/>
</linearGradient>
<linearGradient id="paint17_linear_226_6078" x1="7.97872" y1="11.6001" x2="7.97872" y2="15.2001" gradientUnits="userSpaceOnUse">
<stop stop-color="#FA82C6"/>
<stop offset="1" stop-color="#F44B94"/>
</linearGradient>
<linearGradient id="paint18_linear_226_6078" x1="10.2102" y1="11.6001" x2="10.2102" y2="15.2001" gradientUnits="userSpaceOnUse">
<stop stop-color="#FA5B99"/>
<stop offset="1" stop-color="#F42E60"/>
</linearGradient>
<linearGradient id="paint19_linear_226_6078" x1="12.4417" y1="11.6001" x2="12.4417" y2="15.2001" gradientUnits="userSpaceOnUse">
<stop stop-color="#FF02A9"/>
<stop offset="1" stop-color="#FE0170"/>
</linearGradient>
<clipPath id="clip0_226_6078">
<rect width="11.2" height="14.4" fill="white" transform="translate(2.40002 0.800049)"/>
</clipPath>
</defs>
</svg>
