<svg width="24" height="24" viewBox="0 0 24 24" fill="none" xmlns="http://www.w3.org/2000/svg">
<path d="M4.75 10.0019H7.647C8.732 10.0019 9.611 9.12295 9.611 8.03795C9.611 7.51695 9.404 7.01695 9.036 6.64895L7.332 4.94495" stroke="#3C4551" stroke-width="1.5" stroke-linecap="round" stroke-linejoin="round"/>
<path d="M15.369 14.4729L14.135 12.6219C13.912 12.2869 13.536 12.0859 13.133 12.0859C12.677 12.0859 12.26 11.8279 12.056 11.4199L11.964 11.2349C11.794 10.8959 11.794 10.4969 11.964 10.1579L12.751 8.58495C12.955 8.17695 13.372 7.91895 13.828 7.91895H16.889" stroke="#3C4551" stroke-width="1.5" stroke-linecap="round" stroke-linejoin="round"/>
<path d="M14 22H8" stroke="#3C4551" stroke-width="1.5" stroke-linecap="round" stroke-linejoin="round"/>
<path d="M4 17L4.636 16.364C8.15 19.878 13.85 19.879 17.364 16.364C20.878 12.85 20.878 7.15 17.364 3.636C17.023 3.295 16.656 2.997 16.278 2.722L17 2" stroke="#3C4551" stroke-width="1.5" stroke-linecap="round" stroke-linejoin="round"/>
<path d="M11 19V22" stroke="#3C4551" stroke-width="1.5" stroke-linecap="round" stroke-linejoin="round"/>
<path d="M15.4194 5.58254C17.8602 8.02332 17.8602 11.9806 15.4194 14.4214C12.9786 16.8621 9.02134 16.8621 6.58057 14.4214C4.13979 11.9806 4.13979 8.02331 6.58057 5.58254C9.02135 3.14176 12.9786 3.14176 15.4194 5.58254" stroke="#3C4551" stroke-width="1.5" stroke-linecap="round" stroke-linejoin="round"/>
</svg>
