<svg width="24" height="24" viewBox="0 0 24 24" fill="none" xmlns="http://www.w3.org/2000/svg">
<g clip-path="url(#clip0_44_8406)">
<path d="M5 19L11 13" stroke="#3C4551" stroke-width="1.5" stroke-linecap="round" stroke-linejoin="round"/>
<path d="M5 3V3.5" stroke="#3C4551" stroke-width="1.5" stroke-linecap="round" stroke-linejoin="round"/>
<path d="M5 7V6.5" stroke="#3C4551" stroke-width="1.5" stroke-linecap="round" stroke-linejoin="round"/>
<path d="M7 5H6.5" stroke="#3C4551" stroke-width="1.5" stroke-linecap="round" stroke-linejoin="round"/>
<path d="M3 5H3.5" stroke="#3C4551" stroke-width="1.5" stroke-linecap="round" stroke-linejoin="round"/>
<path d="M19 17V17.5" stroke="#3C4551" stroke-width="1.5" stroke-linecap="round" stroke-linejoin="round"/>
<path d="M19 21V20.5" stroke="#3C4551" stroke-width="1.5" stroke-linecap="round" stroke-linejoin="round"/>
<path d="M21 19H20.5" stroke="#3C4551" stroke-width="1.5" stroke-linecap="round" stroke-linejoin="round"/>
<path d="M17 19H17.5" stroke="#3C4551" stroke-width="1.5" stroke-linecap="round" stroke-linejoin="round"/>
<path d="M10 20L12 18" stroke="#3C4551" stroke-width="1.5" stroke-linecap="round" stroke-linejoin="round"/>
<path d="M4 14L6 12" stroke="#3C4551" stroke-width="1.5" stroke-linecap="round" stroke-linejoin="round"/>
<path d="M14.9135 12.5724L14.0868 9.913L11.4274 9.08633C11.3191 9.05266 11.2224 8.98936 11.1482 8.90358C11.074 8.8178 11.0252 8.71297 11.0075 8.60094C10.9897 8.48891 11.0037 8.37415 11.0478 8.26963C11.0919 8.16512 11.1643 8.07502 11.2569 8.00953L13.5307 6.40153L13.4951 3.6168C13.4937 3.50338 13.524 3.39181 13.5826 3.29472C13.6413 3.19762 13.7259 3.11887 13.827 3.06737C13.928 3.01586 14.0415 2.99367 14.1545 3.00329C14.2675 3.01291 14.3756 3.05396 14.4665 3.1218L16.6985 4.7874L19.3359 3.89303C19.4433 3.8566 19.5587 3.85096 19.6692 3.87673C19.7797 3.90251 19.8807 3.95867 19.9609 4.03888C20.0411 4.11908 20.0973 4.22013 20.1231 4.33059C20.1488 4.44105 20.1432 4.55651 20.1068 4.66393L19.2124 7.30133L20.878 9.53328C20.9458 9.62419 20.9869 9.73227 20.9965 9.84529C21.0061 9.95831 20.9839 10.0718 20.9324 10.1728C20.8809 10.2739 20.8022 10.3585 20.7051 10.4172C20.608 10.4758 20.4964 10.5061 20.383 10.5047L17.5983 10.4691L15.9903 12.7429C15.9248 12.8355 15.8347 12.9079 15.7302 12.952C15.6257 12.996 15.511 13.01 15.3989 12.9923C15.2869 12.9745 15.1821 12.9258 15.0963 12.8516C15.0105 12.7774 14.9472 12.6807 14.9135 12.5724V12.5724Z" stroke="#3C4551" stroke-width="1.5" stroke-linecap="round" stroke-linejoin="round"/>
</g>
<defs>
<clipPath id="clip0_44_8406">
<rect width="24" height="24" fill="white"/>
</clipPath>
</defs>
</svg>
