<svg width="20" height="20" viewBox="0 0 20 20" fill="none" xmlns="http://www.w3.org/2000/svg">
<path fill-rule="evenodd" clip-rule="evenodd" d="M5.496 1H14.505C16.987 1 19 3.012 19 5.496V14.505C19 16.987 16.988 19 14.504 19H5.496C3.013 19 1 16.988 1 14.504V5.496C1 3.013 3.012 1 5.496 1Z" stroke="#647488" stroke-width="1.5" stroke-linecap="round" stroke-linejoin="round"/>
<path d="M14.949 4.713C14.763 4.714 14.612 4.865 14.612 5.051C14.612 5.237 14.764 5.388 14.95 5.388C15.136 5.388 15.287 5.237 15.287 5.051C15.288 4.864 15.136 4.713 14.949 4.713Z" stroke="#647488" stroke-width="1.5" stroke-linecap="round" stroke-linejoin="round"/>
<path fill-rule="evenodd" clip-rule="evenodd" d="M12.5456 7.45442C13.9515 8.86031 13.9515 11.1397 12.5456 12.5456C11.1397 13.9515 8.86032 13.9515 7.45443 12.5456C6.04854 11.1397 6.04854 8.86031 7.45443 7.45442C8.86032 6.04853 11.1397 6.04853 12.5456 7.45442Z" stroke="#647488" stroke-width="1.5" stroke-linecap="round" stroke-linejoin="round"/>
</svg>
