<svg width="20" height="20" viewBox="0 0 20 20" fill="none" xmlns="http://www.w3.org/2000/svg">
<path d="M16.019 10.0191L17.749 8.28906V8.28906C19.4416 6.64695 19.4825 3.94365 17.8404 2.25106C16.1983 0.558466 13.495 0.517536 11.8024 2.15964C11.7715 2.18965 11.741 2.22013 11.711 2.25106L8.01102 5.95106V5.95106C6.34367 7.61723 6.34272 10.3196 8.00889 11.9869C8.0096 11.9876 8.01031 11.9883 8.01102 11.9891L8.00002 12.0001V12.0001C8.34466 12.3381 8.74481 12.6145 9.18302 12.8171" stroke="#647488" stroke-width="1.5" stroke-linecap="round" stroke-linejoin="round"/>
<path d="M10.806 7.19312V7.19312C11.2443 7.39605 11.6444 7.67273 11.989 8.01112H11.989C13.6564 9.67729 13.6573 12.3796 11.9911 14.047C11.9904 14.0477 11.9897 14.0484 11.989 14.0491L8.28901 17.7491V17.7491C6.59642 19.3912 3.89312 19.3503 2.25101 17.6577C0.64395 16.0012 0.64395 13.3676 2.25101 11.7111L3.98101 9.98111" stroke="#647488" stroke-width="1.5" stroke-linecap="round" stroke-linejoin="round"/>
</svg>
