<svg width="32" height="32" viewBox="0 0 32 32" fill="none" xmlns="http://www.w3.org/2000/svg">
<mask id="mask0_195_6504" style="mask-type:alpha" maskUnits="userSpaceOnUse" x="0" y="0" width="32" height="32">
<path d="M10.2202 0L21.7798 0C25.3336 0 26.6223 0.370022 27.9215 1.06485C29.2207 1.75967 30.2403 2.77929 30.9352 4.0785C31.63 5.37771 32 6.66639 32 10.2202V21.7798C32 25.3336 31.63 26.6223 30.9352 27.9215C30.2403 29.2207 29.2207 30.2403 27.9215 30.9352C26.6223 31.63 25.3336 32 21.7798 32H10.2202C6.66639 32 5.37771 31.63 4.0785 30.9352C2.77929 30.2403 1.75967 29.2207 1.06485 27.9215C0.370022 26.6223 0 25.3336 0 21.7798L0 10.2202C0 6.66639 0.370022 5.37771 1.06485 4.0785C1.75967 2.77929 2.77929 1.75967 4.0785 1.06485C5.37771 0.370022 6.66639 0 10.2202 0Z" fill="white"/>
</mask>
<g mask="url(#mask0_195_6504)">
<path d="M10.2202 0L21.7798 0C25.3336 0 26.6223 0.370022 27.9215 1.06485C29.2207 1.75967 30.2403 2.77929 30.9352 4.0785C31.63 5.37771 32 6.66639 32 10.2202V21.7798C32 25.3336 31.63 26.6223 30.9352 27.9215C30.2403 29.2207 29.2207 30.2403 27.9215 30.9352C26.6223 31.63 25.3336 32 21.7798 32H10.2202C6.66639 32 5.37771 31.63 4.0785 30.9352C2.77929 30.2403 1.75967 29.2207 1.06485 27.9215C0.370022 26.6223 0 25.3336 0 21.7798L0 10.2202C0 6.66639 0.370022 5.37771 1.06485 4.0785C1.75967 2.77929 2.77929 1.75967 4.0785 1.06485C5.37771 0.370022 6.66639 0 10.2202 0Z" fill="#D8D8D8"/>
<path d="M8 0H0V8H8V0Z" fill="url(#paint0_linear_195_6504)"/>
<path d="M16 0H8V8H16V0Z" fill="url(#paint1_linear_195_6504)"/>
<path d="M24 0H16V8H24V0Z" fill="url(#paint2_linear_195_6504)"/>
<path d="M32 0H24V8H32V0Z" fill="url(#paint3_linear_195_6504)"/>
<path d="M8 8H0V16H8V8Z" fill="url(#paint4_linear_195_6504)"/>
<path d="M16 8H8V16H16V8Z" fill="url(#paint5_linear_195_6504)"/>
<path d="M24 8H16V16H24V8Z" fill="url(#paint6_linear_195_6504)"/>
<path d="M32 8H24V16H32V8Z" fill="url(#paint7_linear_195_6504)"/>
<path d="M8 16H0V24H8V16Z" fill="url(#paint8_linear_195_6504)"/>
<path d="M16 16H8V24H16V16Z" fill="url(#paint9_linear_195_6504)"/>
<path d="M24 16H16V24H24V16Z" fill="url(#paint10_linear_195_6504)"/>
<path d="M32 16H24V24H32V16Z" fill="url(#paint11_linear_195_6504)"/>
<path d="M8 24H0V32H8V24Z" fill="url(#paint12_linear_195_6504)"/>
<path d="M16 24H8V32H16V24Z" fill="url(#paint13_linear_195_6504)"/>
<path d="M24 24H16V32H24V24Z" fill="url(#paint14_linear_195_6504)"/>
<path d="M32 24H24V32H32V24Z" fill="url(#paint15_linear_195_6504)"/>
</g>
<path d="M22.823 15.575L16.812 24.258C16.261 25.053 15.014 24.664 15.014 23.696V17.973H9.98898C9.19298 17.973 8.72398 17.079 9.17798 16.424L15.189 7.74104C15.74 6.94604 16.987 7.33504 16.987 8.30304V14.026H22.012C22.807 14.026 23.276 14.92 22.823 15.575Z" fill="white" stroke="white" stroke-width="1.5" stroke-linecap="round" stroke-linejoin="round"/>
<defs>
<linearGradient id="paint0_linear_195_6504" x1="4" y1="0" x2="4" y2="8" gradientUnits="userSpaceOnUse">
<stop stop-color="#5BE1FF"/>
<stop offset="1" stop-color="#2EC0FF"/>
</linearGradient>
<linearGradient id="paint1_linear_195_6504" x1="12" y1="0" x2="12" y2="8" gradientUnits="userSpaceOnUse">
<stop stop-color="#A2F9FF"/>
<stop offset="1" stop-color="#69F1FE"/>
</linearGradient>
<linearGradient id="paint2_linear_195_6504" x1="20" y1="0" x2="20" y2="8" gradientUnits="userSpaceOnUse">
<stop stop-color="#8EE0FF"/>
<stop offset="1" stop-color="#55BDFF"/>
</linearGradient>
<linearGradient id="paint3_linear_195_6504" x1="28" y1="0" x2="28" y2="8" gradientUnits="userSpaceOnUse">
<stop stop-color="#54DEFC"/>
<stop offset="1" stop-color="#2ABAF7"/>
</linearGradient>
<linearGradient id="paint4_linear_195_6504" x1="4" y1="8" x2="4" y2="16" gradientUnits="userSpaceOnUse">
<stop stop-color="#49E9D1"/>
<stop offset="1" stop-color="#23CFA4"/>
</linearGradient>
<linearGradient id="paint5_linear_195_6504" x1="12" y1="8" x2="12" y2="16" gradientUnits="userSpaceOnUse">
<stop stop-color="#5BE1FF"/>
<stop offset="1" stop-color="#2EC0FF"/>
</linearGradient>
<linearGradient id="paint6_linear_195_6504" x1="20" y1="8" x2="20" y2="16" gradientUnits="userSpaceOnUse">
<stop stop-color="#5FD8FF"/>
<stop offset="1" stop-color="#31AFFF"/>
</linearGradient>
<linearGradient id="paint7_linear_195_6504" x1="28" y1="8" x2="28" y2="16" gradientUnits="userSpaceOnUse">
<stop stop-color="#89C6FD"/>
<stop offset="1" stop-color="#5194F9"/>
</linearGradient>
<linearGradient id="paint8_linear_195_6504" x1="4" y1="16" x2="4" y2="24" gradientUnits="userSpaceOnUse">
<stop stop-color="#25CFFF"/>
<stop offset="1" stop-color="#10A2FF"/>
</linearGradient>
<linearGradient id="paint9_linear_195_6504" x1="12" y1="16" x2="12" y2="24" gradientUnits="userSpaceOnUse">
<stop stop-color="#87DAF9"/>
<stop offset="1" stop-color="#4FB3F0"/>
</linearGradient>
<linearGradient id="paint10_linear_195_6504" x1="9.54794" y1="20" x2="24" y2="20" gradientUnits="userSpaceOnUse">
<stop stop-color="#B78AFC"/>
<stop offset="0.451623" stop-color="#887CFC"/>
<stop offset="1" stop-color="#5C89FF"/>
</linearGradient>
<linearGradient id="paint11_linear_195_6504" x1="28" y1="16" x2="28" y2="24" gradientUnits="userSpaceOnUse">
<stop stop-color="#A89AF4"/>
<stop offset="1" stop-color="#6F61E5"/>
</linearGradient>
<linearGradient id="paint12_linear_195_6504" x1="4" y1="24" x2="4" y2="32" gradientUnits="userSpaceOnUse">
<stop stop-color="#80C3F3"/>
<stop offset="1" stop-color="#4990E3"/>
</linearGradient>
<linearGradient id="paint13_linear_195_6504" x1="-20.3616" y1="29.5825" x2="16" y2="28" gradientUnits="userSpaceOnUse">
<stop stop-color="#B78AFC"/>
<stop offset="0.451623" stop-color="#887CFC"/>
<stop offset="1" stop-color="#5C89FF"/>
</linearGradient>
<linearGradient id="paint14_linear_195_6504" x1="20" y1="24" x2="20" y2="32" gradientUnits="userSpaceOnUse">
<stop stop-color="#FA82C6"/>
<stop offset="1" stop-color="#F44B94"/>
</linearGradient>
<linearGradient id="paint15_linear_195_6504" x1="28" y1="24" x2="28" y2="32" gradientUnits="userSpaceOnUse">
<stop stop-color="#FA5B99"/>
<stop offset="1" stop-color="#F42E60"/>
</linearGradient>
</defs>
</svg>
