<svg width="18" height="18" viewBox="0 0 18 18" fill="none" xmlns="http://www.w3.org/2000/svg">
<g clip-path="url(#clip0_226_7436)">
<path d="M8.99308 18C8.72441 18.0011 8.4592 17.9391 8.21889 17.8189C7.97857 17.6988 7.76987 17.5238 7.60953 17.3082L6.05304 15.2329H3.45888C2.54153 15.2329 1.66171 14.8685 1.01305 14.2198C0.364382 13.5712 0 12.6914 0 11.774V3.47273C0 2.55538 0.364382 1.67561 1.01305 1.02694C1.66171 0.378279 2.54153 0.013855 3.45888 0.013855H14.5273C15.4446 0.013855 16.3244 0.378279 16.9731 1.02694C17.6217 1.67561 17.9862 2.55538 17.9862 3.47273V11.774C17.9862 12.6914 17.6217 13.5712 16.9731 14.2198C16.3244 14.8685 15.4446 15.2329 14.5273 15.2329H11.94L10.3835 17.3082C10.2232 17.5238 10.0145 17.6988 9.77416 17.8189C9.53384 17.9391 9.26864 18.0011 8.99996 18H8.99308ZM3.45888 1.39741C2.90847 1.39741 2.38059 1.61606 1.99139 2.00526C1.60219 2.39446 1.38355 2.92232 1.38355 3.47273V11.774C1.38355 12.3244 1.60219 12.8523 1.99139 13.2415C2.38059 13.6307 2.90847 13.8494 3.45888 13.8494H6.40581C6.51379 13.8502 6.62009 13.8762 6.71618 13.9255C6.81228 13.9747 6.89555 14.0458 6.95926 14.133L8.72328 16.485C8.75438 16.527 8.79513 16.5609 8.84209 16.5837C8.88906 16.6066 8.94086 16.6178 8.99308 16.6165C9.0453 16.6178 9.09707 16.6066 9.14403 16.5837C9.19099 16.5609 9.23174 16.527 9.26284 16.485L11.0269 14.133C11.0906 14.0458 11.1738 13.9747 11.2699 13.9255C11.366 13.8762 11.4723 13.8502 11.5803 13.8494H14.5204C15.0708 13.8494 15.5986 13.6307 15.9878 13.2415C16.377 12.8523 16.5957 12.3244 16.5957 11.774V3.47273C16.5957 2.92232 16.377 2.39446 15.9878 2.00526C15.5986 1.61606 15.0708 1.39741 14.5204 1.39741H3.45888ZM7.04919 11.8847C6.80073 11.8877 6.55799 11.8101 6.35742 11.6634C6.18211 11.5382 6.04607 11.3656 5.96521 11.1659C5.88436 10.9662 5.86202 10.7477 5.90082 10.5358L6.17063 8.96543L5.02918 7.85168C4.874 7.70236 4.76396 7.5124 4.71158 7.30351C4.6592 7.09461 4.66662 6.87519 4.73299 6.67032C4.79936 6.46544 4.92198 6.28336 5.0869 6.14485C5.25181 6.00635 5.45238 5.91701 5.66564 5.88704L7.24287 5.65875L7.93465 4.22679C8.02969 4.03258 8.17732 3.86894 8.36076 3.75448C8.5442 3.64003 8.75609 3.57934 8.97231 3.57934C9.18853 3.57934 9.40042 3.64003 9.58386 3.75448C9.7673 3.86894 9.91493 4.03258 10.01 4.22679L10.7017 5.65875L12.279 5.88704C12.4923 5.91701 12.6928 6.00635 12.8577 6.14485C13.0226 6.28336 13.1453 6.46544 13.2116 6.67032C13.278 6.87519 13.2855 7.09461 13.2331 7.30351C13.1807 7.5124 13.0706 7.70236 12.9154 7.85168L11.8293 8.96543L12.0991 10.5358C12.1371 10.7477 12.1144 10.9659 12.0336 11.1655C11.9528 11.365 11.8172 11.5376 11.6426 11.6634C11.4687 11.7885 11.2636 11.8631 11.05 11.879C10.8363 11.8948 10.6224 11.8513 10.4319 11.7533L9.01381 11.0062L7.63026 11.7533C7.45197 11.8487 7.2512 11.8941 7.04919 11.8847ZM6.35742 7.18758L7.42274 8.22525C7.50387 8.30372 7.56456 8.40084 7.59952 8.50816C7.63449 8.61548 7.64266 8.72971 7.62334 8.84092L7.36738 10.3075L8.6887 9.6157C8.78792 9.56359 8.89828 9.53637 9.01035 9.53637C9.12242 9.53637 9.23283 9.56359 9.33205 9.6157L10.6533 10.3075L10.3974 8.84092C10.378 8.72971 10.3862 8.61548 10.4212 8.50816C10.4561 8.40084 10.5168 8.30372 10.598 8.22525L11.6633 7.18758L10.1898 6.97314C10.079 6.95649 9.97389 6.91315 9.88352 6.84687C9.79314 6.78059 9.7202 6.69335 9.67101 6.59265L8.97923 5.25752L8.32204 6.59265C8.27285 6.69335 8.19991 6.78059 8.10953 6.84687C8.01915 6.91315 7.91404 6.95649 7.80321 6.97314L6.35742 7.18758Z" fill="#505D6D"/>
</g>
<defs>
<clipPath id="clip0_226_7436">
<rect width="18" height="18" fill="white"/>
</clipPath>
</defs>
</svg>
