<svg width="20" height="20" viewBox="0 0 20 20" fill="none" xmlns="http://www.w3.org/2000/svg">
<path fill-rule="evenodd" clip-rule="evenodd" d="M5.5 1H14.504C16.987 1 19 3.013 19 5.496V14.505C19 16.987 16.987 19 14.504 19H5.496C3.013 19 1 16.987 1 14.504V5.5C1 3.015 3.015 1 5.5 1V1Z" stroke="#647488" stroke-width="1.5" stroke-linecap="round" stroke-linejoin="round"/>
<g clip-path="url(#clip0_226_7408)">
<path d="M11.5561 6.58079L12.7026 7.295C13.3043 7.66977 13.7896 7.88726 14.2493 7.96967V7.47182C13.5447 7.30678 12.945 6.96175 12.4855 6.44085C12.074 5.97437 11.8018 5.39784 11.6479 4.75077L11.1009 4.75196V11.1443C11.1759 12.1901 11.003 13.0403 10.6004 13.6682C10.1832 14.3188 9.55847 14.6653 8.90188 14.7322C7.66302 14.8584 6.33222 13.9747 6.1381 12.563L6.13804 12.5625C6.04811 11.9053 6.15759 11.3035 6.50853 10.8056C6.84891 10.3226 7.35399 10.0265 7.88558 9.84115C8.02488 9.79225 8.1676 9.74874 8.3102 9.71059V9.1313C7.01444 9.38297 6.29668 10.1253 5.97033 10.9638C5.60054 11.9139 5.71531 13.0362 6.19346 13.8423L11.5561 6.58079ZM11.5561 6.58079V7.93159M11.5561 6.58079V7.93159M11.5561 7.93159V11.514M11.5561 7.93159V11.514M11.5561 11.514C11.5561 13.504 10.5217 14.6931 9.40177 15.0929M11.5561 11.514L9.40177 15.0929M9.40177 15.0929C8.28231 15.4926 6.97372 15.1554 6.19352 13.8424L9.40177 15.0929Z" stroke="#647488" stroke-width="1.5"/>
</g>
<defs>
<clipPath id="clip0_226_7408">
<rect x="5" y="4" width="10" height="12" rx="2" fill="white"/>
</clipPath>
</defs>
</svg>
