<svg width="20" height="20" viewBox="0 0 20 20" fill="none" xmlns="http://www.w3.org/2000/svg">
<path d="M5.5 1H14.504C16.987 1 19 3.013 19 5.496V14.505C19 16.987 16.987 19 14.504 19H5.496C3.013 19 1 16.987 1 14.504V5.5C1 3.015 3.015 1 5.5 1Z" stroke="#647488" stroke-width="1.5" stroke-linecap="round" stroke-linejoin="round"/>
<path d="M4.25 13.35C4.269 13.347 6.05 12.75 6.05 12.75C4.046 10.724 3.894 7.723 5.45 5.55C6.188 6.923 7.566 8.189 9.05 8.55C9.107 6.817 10.283 5.55 12.05 5.55C13.253 5.55 13.961 6.009 14.45 6.75H16.25L15.05 8.55" stroke="#647488" stroke-width="1.5" stroke-linecap="round" stroke-linejoin="round"/>
</svg>
